<svg xmlns="http://www.w3.org/2000/svg" viewBox="0 0 64 64" role="img" aria-label="SE-GUARD favicon">
  <defs>
    <linearGradient id="bg" x1="0" y1="0" x2="1" y2="1">
      <stop offset="0%" stop-color="#00c8a0"/>
      <stop offset="100%" stop-color="#0084ff"/>
    </linearGradient>
    <linearGradient id="inner" x1="0" y1="0" x2="1" y2="1">
      <stop offset="0%" stop-color="#03101e"/>
      <stop offset="100%" stop-color="#0a2138"/>
    </linearGradient>
  </defs>

  <rect width="64" height="64" rx="14" fill="#040d1a"/>
  <path d="M32 6 L50 13 V28 C50 40 42.5 50 32 56 C21.5 50 14 40 14 28 V13 Z" fill="url(#bg)"/>
  <path d="M32 11.5 L45 16.6 V28 C45 36.5 40.3 43.6 32 48.8 C23.7 43.6 19 36.5 19 28 V16.6 Z" fill="url(#inner)"/>

  <path d="M22.8 25.8 C23.7 22.2 26.9 19.9 31 19.9 C33.7 19.9 36 20.8 38.1 22.8 L35.4 25.6 C34 24.3 32.8 23.9 31.1 23.9 C28.8 23.9 27.1 25.1 26.5 26.9 C26.3 27.4 26.2 27.8 26.2 28.9 C26.2 29.9 26.3 30.4 26.5 30.8 C27.1 32.6 28.8 33.8 31.1 33.8 C33.2 33.8 34.5 33.2 35.6 31.9 C36.2 31.2 36.6 30.4 36.7 29.3 H31.1 V25.8 Z" fill="#00d8ff"/>
  <path d="M24.1 40.8 V37.4 H40.6 V40.8 H24.1 Z" fill="#00c8a0"/>
</svg>
